<svg xmlns="http://www.w3.org/2000/svg" viewBox="0 0 620 150" role="img" aria-labelledby="title desc">
  <title id="title">A Way to Freedom Bail Bonds</title>
  <desc id="desc">Professional bail bond logo with gold scales of justice and A Way to Freedom wordmark.</desc>
  <defs>
    <linearGradient id="gold" x1="0" x2="1" y1="0" y2="1">
      <stop offset="0" stop-color="#f8d76a"/>
      <stop offset="0.48" stop-color="#d4af37"/>
      <stop offset="1" stop-color="#9b7521"/>
    </linearGradient>
    <linearGradient id="navy" x1="0" x2="1" y1="0" y2="1">
      <stop offset="0" stop-color="#101827"/>
      <stop offset="1" stop-color="#050c18"/>
    </linearGradient>
    <filter id="softShadow" x="-20%" y="-20%" width="140%" height="140%">
      <feDropShadow dx="0" dy="7" stdDeviation="7" flood-color="#000" flood-opacity="0.32"/>
    </filter>
  </defs>
  <g filter="url(#softShadow)">
    <rect x="8" y="8" width="134" height="134" rx="34" fill="url(#navy)" stroke="url(#gold)" stroke-width="5"/>
    <circle cx="75" cy="75" r="43" fill="#0b1526" stroke="#d4af37" stroke-width="2" opacity=".95"/>
    <g fill="none" stroke="url(#gold)" stroke-linecap="round" stroke-linejoin="round">
      <path d="M75 40v55M50 59h50" stroke-width="7"/>
      <path d="M51 59l-12 28M51 59l12 28M99 59L87 87M99 59l12 28" stroke-width="4"/>
      <path d="M33 90h36M81 90h36" stroke-width="5"/>
      <path d="M61 105h28M52 116h46" stroke-width="7"/>
    </g>
    <circle cx="75" cy="40" r="7" fill="url(#gold)"/>
  </g>
  <g transform="translate(168 28)">
    <text x="0" y="44" font-family="Georgia, 'Times New Roman', serif" font-size="42" font-weight="700" fill="#ffffff" letter-spacing=".2">A Way to Freedom</text>
    <text x="2" y="88" font-family="Arial, Helvetica, sans-serif" font-size="35" font-weight="800" fill="url(#gold)" letter-spacing="2.7">BAIL BONDS</text>
    <path d="M3 104h318" stroke="url(#gold)" stroke-width="4" stroke-linecap="round"/>
  </g>
</svg>